<?xml version="1.0" encoding="UTF-8" standalone="no"?>
<!-- Created with Inkscape (http://www.inkscape.org/) -->

<svg
   xmlns:dc="http://purl.org/dc/elements/1.1/"
   xmlns:cc="http://creativecommons.org/ns#"
   xmlns:rdf="http://www.w3.org/1999/02/22-rdf-syntax-ns#"
   xmlns:svg="http://www.w3.org/2000/svg"
   xmlns="http://www.w3.org/2000/svg"
   xmlns:sodipodi="http://sodipodi.sourceforge.net/DTD/sodipodi-0.dtd"
   xmlns:inkscape="http://www.inkscape.org/namespaces/inkscape"
   width="940"
   height="802.92175"
   id="svg2"
   version="1.1"
   inkscape:version="0.48.2 r9819"
   sodipodi:docname="google_distance.svg">
  <defs
     id="defs4">
    <filter
       inkscape:collect="always"
       id="filter3807"
       color-interpolation-filters="sRGB">
      <feGaussianBlur
         inkscape:collect="always"
         stdDeviation="5.9662579e-06"
         id="feGaussianBlur3809" />
    </filter>
    <filter
       color-interpolation-filters="sRGB"
       inkscape:collect="always"
       id="filter3807-6">
      <feGaussianBlur
         inkscape:collect="always"
         stdDeviation="5.9662579e-06"
         id="feGaussianBlur3809-7" />
    </filter>
    <filter
       inkscape:collect="always"
       id="filter3807-9"
       color-interpolation-filters="sRGB">
      <feGaussianBlur
         inkscape:collect="always"
         stdDeviation="5.9662579e-06"
         id="feGaussianBlur3809-3" />
    </filter>
    <filter
       inkscape:collect="always"
       id="filter3807-3"
       color-interpolation-filters="sRGB">
      <feGaussianBlur
         inkscape:collect="always"
         stdDeviation="5.9662579e-06"
         id="feGaussianBlur3809-8" />
    </filter>
  </defs>
  <sodipodi:namedview
     id="base"
     pagecolor="#ffffff"
     bordercolor="#666666"
     borderopacity="1.0"
     inkscape:pageopacity="0.0"
     inkscape:pageshadow="2"
     inkscape:zoom="0.35"
     inkscape:cx="-69.285729"
     inkscape:cy="370.94693"
     inkscape:document-units="px"
     inkscape:current-layer="layer1"
     showgrid="false"
     fit-margin-top="20"
     fit-margin-left="20"
     fit-margin-right="20"
     fit-margin-bottom="20"
     inkscape:window-width="1410"
     inkscape:window-height="738"
     inkscape:window-x="6"
     inkscape:window-y="72"
     inkscape:window-maximized="0" />
  <metadata
     id="metadata7">
    <rdf:RDF>
      <cc:Work
         rdf:about="">
        <dc:format>image/svg+xml</dc:format>
        <dc:type
           rdf:resource="http://purl.org/dc/dcmitype/StillImage" />
        <dc:title />
      </cc:Work>
    </rdf:RDF>
  </metadata>
  <g
     inkscape:label="Layer 1"
     inkscape:groupmode="layer"
     id="layer1"
     transform="translate(612.85713,-181.94384)">
    <path
       sodipodi:type="arc"
       style="fill:#b6ea96;fill-opacity:0.91304351;stroke:none"
       id="path2985"
       sodipodi:cx="367.14285"
       sodipodi:cy="570.93359"
       sodipodi:rx="264.28571"
       sodipodi:ry="487.14285"
       d="m 631.42856,570.93359 c 0,269.04157 -118.32474,487.14281 -264.28571,487.14281 -145.96096,0 -264.2857,-218.10124 -264.2857,-487.14281 0,-269.04156 118.32474,-487.142849 264.2857,-487.142849 143.09705,0 260.20179,209.927849 264.18338,473.588389"
       sodipodi:start="0"
       sodipodi:end="6.2553573"
       sodipodi:open="true"
       transform="matrix(-0.01723362,1.0021754,-0.92370536,-0.01281766,390.84449,106.25604)" />
    <text
       xml:space="preserve"
       style="font-size:26.58460617px;font-style:normal;font-weight:normal;line-height:125%;letter-spacing:0px;word-spacing:0px;fill:#000000;fill-opacity:1;stroke:none;font-family:Sans"
       x="-338.44388"
       y="253.25264"
       id="text3755"
       sodipodi:linespacing="125%"><tspan
         sodipodi:role="line"
         id="tspan3757"
         x="-338.44388"
         y="253.25264">Corpus of Medical Literature</tspan></text>
    <path
       sodipodi:type="arc"
       style="fill:#97d8c0;fill-opacity:1;stroke:none"
       id="path3769"
       sodipodi:cx="491.42856"
       sodipodi:cy="555.2193"
       sodipodi:rx="182.85715"
       sodipodi:ry="137.14285"
       d="m 674.28571,555.2193 c 0,75.74191 -81.86794,137.14285 -182.85715,137.14285 -100.98922,0 -182.85715,-61.40094 -182.85715,-137.14285 0,-75.74191 81.86793,-137.14285 182.85715,-137.14285 99.00769,0 180.03152,59.09992 182.78635,133.32693"
       sodipodi:start="0"
       sodipodi:end="6.2553573"
       sodipodi:open="true"
       transform="matrix(0.53480752,0,0,0.63692287,-242.94106,17.922209)" />
    <path
       style="fill:#d6aed2;fill-opacity:1;stroke:none;filter:url(#filter3807)"
       d="m -65.71875,106.65625 c -108.87899,0 -197.125,67.77456 -197.125,151.40625 0,83.63169 88.24601,151.4375 197.125,151.4375 108.878988,0 197.15625,-67.80581 197.15625,-151.4375 l -0.0937,-4.1875 C 128.3737,171.91601 41.023908,106.65625 -65.71875,106.65625 z"
       id="path3759"
       inkscape:connector-curvature="0"
       transform="matrix(1.1221452,0,0,1.0909909,-108.04873,150.18946)" />
    <path
       inkscape:connector-curvature="0"
       style="fill:#d6aed2;fill-opacity:1;stroke:none;filter:url(#filter3807-6)"
       d="m -245.72992,598.08316 c -108.87898,0 -197.12499,67.77456 -197.12499,151.40625 0,83.63169 88.24601,151.4375 197.12499,151.4375 108.87899,0 197.156257,-67.80581 197.156257,-151.4375 l -0.0937,-4.1875 c -2.9701,-81.95899 -90.319897,-147.21875 -197.062557,-147.21875 z"
       id="path3759-0"
       transform="matrix(0.14327916,0,0,0.18653937,-131.76744,698.30175)" />
    <path
       sodipodi:type="arc"
       style="fill:#97d8c0;fill-opacity:1;stroke:none"
       id="path3769-6"
       sodipodi:cx="491.42856"
       sodipodi:cy="555.2193"
       sodipodi:rx="182.85715"
       sodipodi:ry="137.14285"
       d="m 674.28571,555.2193 c 0,75.74191 -81.86794,137.14285 -182.85715,137.14285 -100.98922,0 -182.85715,-61.40094 -182.85715,-137.14285 0,-75.74191 81.86793,-137.14285 182.85715,-137.14285 99.00769,0 180.03152,59.09992 182.78635,133.32693"
       sodipodi:start="0"
       sodipodi:end="6.2553573"
       sodipodi:open="true"
       transform="matrix(0.1544711,0,0,0.20596148,17.264681,723.76017)" />
    <path
       style="fill:none;stroke:#000000;stroke-width:3.45599866;stroke-linecap:butt;stroke-linejoin:miter;stroke-miterlimit:4;stroke-opacity:1;stroke-dasharray:none"
       d="m -138.72703,838.11395 203.657076,10e-6"
       id="path3901"
       inkscape:connector-type="polyline"
       inkscape:connector-curvature="0"
       inkscape:connection-start="#path3759-0"
       inkscape:connection-start-point="d4"
       inkscape:connection-end="#path3769-6"
       inkscape:connection-end-point="d4" />
    <path
       sodipodi:type="arc"
       style="fill:#daca48;fill-opacity:0.91372549;stroke:none"
       id="path4819"
       sodipodi:cx="-55.714287"
       sodipodi:cy="441.1293"
       sodipodi:rx="158.57143"
       sodipodi:ry="144.28572"
       d="m 102.85714,441.1293 c 0,79.68681 -70.994846,144.28572 -158.571427,144.28572 -87.576583,0 -158.571423,-64.59891 -158.571423,-144.28572 0,-79.6868 70.99484,-144.28572 158.571423,-144.28572 85.858228,0 156.121077,62.17805 158.510027,140.27106"
       transform="matrix(0.66461517,0,0,0.66461517,-306.12318,148.77462)"
       sodipodi:start="0"
       sodipodi:end="6.2553573"
       sodipodi:open="true" />
    <path
       style="fill:#ffde94;fill-opacity:1;stroke:none;filter:url(#filter3807-9)"
       d="m -442.76658,225.92487 c -16.33,0 -32.0822,2.26639 -46.9063,6.4375 -27.4611,36.14668 -43.15617,77.93444 -43.15617,122.46875 0,60.56573 29.02277,116.06086 77.21867,159.18746 4.2321,0.3084 8.5244,0.5 12.8438,0.5 87.5766,0 158.5625,-64.6257 158.5625,-144.31246 l -0.062,-4 c -2.389,-78.09301 -72.6418,-140.28125 -158.5,-140.28125 z"
       id="path3759-4"
       inkscape:connector-curvature="0"
       transform="matrix(0.66461517,0,0,0.66461517,-47.912115,195.66509)" />
    <path
       sodipodi:type="arc"
       style="fill:#ff9094;fill-opacity:1;stroke:none"
       id="path4906"
       sodipodi:cx="461.42856"
       sodipodi:cy="553.98645"
       sodipodi:rx="110"
       sodipodi:ry="114.28571"
       d="m 571.42856,553.98645 c 0,63.11826 -49.24868,114.28571 -110,114.28571 -60.75132,0 -110,-51.16745 -110,-114.28571 0,-63.11826 49.24868,-114.28571 110,-114.28571 59.55931,0 108.30021,49.24993 109.95741,111.10578"
       transform="matrix(0.66461517,0,0,0.66461517,-328.90998,230.42734)"
       sodipodi:start="0"
       sodipodi:end="6.2553573"
       sodipodi:open="true" />
    <path
       style="fill:#ffde94;fill-opacity:1;stroke:none;filter:url(#filter3807-3)"
       d="m 34.353933,490.40255 c -53.19024,0 -97.55998,39.2176 -107.78125,91.3437 57.00022,-18.4572 105.72245,-48.4741 140.875,-86.0937 -10.45,-3.4212 -21.57137,-5.25 -33.09375,-5.25 z"
       id="path3759-3"
       inkscape:connector-curvature="0"
       transform="matrix(0.66461517,0,0,0.66461517,-47.912115,195.66509)" />
    <path
       sodipodi:type="arc"
       style="fill:#ff9094;fill-opacity:1;stroke:none"
       id="path4906-8"
       sodipodi:cx="461.42856"
       sodipodi:cy="553.98645"
       sodipodi:rx="110"
       sodipodi:ry="114.28571"
       d="m 571.42856,553.98645 c 0,63.11826 -49.24868,114.28571 -110,114.28571 -60.75132,0 -110,-51.16745 -110,-114.28571 0,-63.11826 49.24868,-114.28571 110,-114.28571 59.55931,0 108.30021,49.24993 109.95741,111.10578"
       transform="matrix(0.25678314,0,0,0.24715377,145.0599,566.13483)"
       sodipodi:start="0"
       sodipodi:end="6.2553573"
       sodipodi:open="true" />
    <path
       sodipodi:type="arc"
       style="fill:#d8cd4f;fill-opacity:0.99215896;stroke:none"
       id="path4906-8-1"
       sodipodi:cx="461.42856"
       sodipodi:cy="553.98645"
       sodipodi:rx="110"
       sodipodi:ry="114.28571"
       d="m 571.42856,553.98645 c 0,63.11826 -49.24868,114.28571 -110,114.28571 -60.75132,0 -110,-51.16745 -110,-114.28571 0,-63.11826 49.24868,-114.28571 110,-114.28571 59.55931,0 108.30021,49.24993 109.95741,111.10578"
       transform="matrix(0.25678314,0,0,0.24715377,-274.59711,799.69959)"
       sodipodi:start="0"
       sodipodi:end="6.2553573"
       sodipodi:open="true" />
    <path
       style="fill:#ffde94;fill-opacity:1;stroke:none"
       d="m -44.436887,304.46072 c -22.353421,16.00822 -36.67845,40.60323 -36.67845,68.18537 0,48.24172 43.792484,87.35532 97.802276,87.35532 6.620396,0 13.084855,-0.6038 19.336146,-1.72381 1.643095,-8.11881 2.513076,-16.42058 2.513076,-24.88153 l -0.103846,-4.56923 C 36.553401,378.4183 4.5615073,333.79682 -44.436887,304.46072 z"
       id="path3769-3"
       inkscape:connector-curvature="0" />
    <path
       style="fill:none;stroke:#000000;stroke-width:3.45599866;stroke-linecap:butt;stroke-linejoin:miter;stroke-miterlimit:4;stroke-opacity:1;stroke-dasharray:none"
       d="m -163.87674,866.19204 4.67023,42.34903"
       id="path5000"
       inkscape:connector-type="polyline"
       inkscape:connector-curvature="0"
       inkscape:connection-start="#path3759-0"
       inkscape:connection-start-point="d4"
       inkscape:connection-end="#path4906-8-1"
       inkscape:connection-end-point="d4" />
    <path
       style="fill:none;stroke:#000000;stroke-width:3.45599866;stroke-linecap:butt;stroke-linejoin:miter;stroke-miterlimit:4;stroke-opacity:1;stroke-dasharray:none"
       d="M -140.01851,829.65795 236.5887,711.5118"
       id="path5002"
       inkscape:connector-type="polyline"
       inkscape:connector-curvature="0"
       inkscape:connection-start="#path3759-0"
       inkscape:connection-start-point="d4"
       inkscape:connection-end="#path4906-8"
       inkscape:connection-end-point="d4" />
    <text
       xml:space="preserve"
       style="font-size:26.58460617px;font-style:normal;font-weight:normal;line-height:125%;letter-spacing:0px;word-spacing:0px;fill:#000000;fill-opacity:1;stroke:none;font-family:Sans"
       x="-195.98695"
       y="469.48993"
       id="text5004"
       sodipodi:linespacing="125%"><tspan
         sodipodi:role="line"
         id="tspan5006"
         x="-195.98695"
         y="469.48993">BRCA1</tspan></text>
    <text
       xml:space="preserve"
       style="font-size:26.58460617px;font-style:normal;font-weight:normal;line-height:125%;letter-spacing:0px;word-spacing:0px;fill:#000000;fill-opacity:1;stroke:none;font-family:Sans"
       x="-63.063915"
       y="636.59314"
       id="text5008"
       sodipodi:linespacing="125%"><tspan
         sodipodi:role="line"
         id="tspan5010"
         x="-63.063915"
         y="636.59314">CLSPN</tspan></text>
    <text
       xml:space="preserve"
       style="font-size:26.58460617px;font-style:normal;font-weight:normal;line-height:125%;letter-spacing:0px;word-spacing:0px;fill:#000000;fill-opacity:1;stroke:none;font-family:Sans"
       x="48.971222"
       y="347.9603"
       id="text5012"
       sodipodi:linespacing="125%"><tspan
         sodipodi:role="line"
         id="tspan5014"
         x="48.971222"
         y="347.9603">hsa-mir-3200</tspan></text>
    <text
       xml:space="preserve"
       style="font-size:26.58460617px;font-style:normal;font-weight:normal;line-height:125%;letter-spacing:0px;word-spacing:0px;fill:#000000;fill-opacity:1;stroke:none;font-family:Sans"
       x="-488.41766"
       y="458.0965"
       id="text5016"
       sodipodi:linespacing="125%"><tspan
         sodipodi:role="line"
         id="tspan5018"
         x="-488.41766"
         y="458.0965">GATA3</tspan></text>
  </g>
</svg>
