<?xml version="1.0" encoding="UTF-8" standalone="no"?>
<!-- Created with Inkscape (http://www.inkscape.org/) -->

<svg
   xmlns:dc="http://purl.org/dc/elements/1.1/"
   xmlns:cc="http://creativecommons.org/ns#"
   xmlns:rdf="http://www.w3.org/1999/02/22-rdf-syntax-ns#"
   xmlns:svg="http://www.w3.org/2000/svg"
   xmlns="http://www.w3.org/2000/svg"
   xmlns:sodipodi="http://sodipodi.sourceforge.net/DTD/sodipodi-0.dtd"
   xmlns:inkscape="http://www.inkscape.org/namespaces/inkscape"
   width="1014.1671"
   height="759.70068"
   id="svg3932"
   version="1.1"
   inkscape:version="0.48.2 r9819"
   sodipodi:docname="long_distance.png">
  <defs
     id="defs3934">
    <filter
       color-interpolation-filters="sRGB"
       inkscape:collect="always"
       id="filter3807-6">
      <feGaussianBlur
         inkscape:collect="always"
         stdDeviation="5.9662579e-06"
         id="feGaussianBlur3809-7" />
    </filter>
    <filter
       color-interpolation-filters="sRGB"
       inkscape:collect="always"
       id="filter3807">
      <feGaussianBlur
         inkscape:collect="always"
         stdDeviation="5.9662579e-06"
         id="feGaussianBlur3809" />
    </filter>
  </defs>
  <sodipodi:namedview
     id="base"
     pagecolor="#ffffff"
     bordercolor="#666666"
     borderopacity="1.0"
     inkscape:pageopacity="0.0"
     inkscape:pageshadow="2"
     inkscape:zoom="0.35"
     inkscape:cx="317.79786"
     inkscape:cy="265.56463"
     inkscape:document-units="px"
     inkscape:current-layer="layer1"
     showgrid="false"
     fit-margin-top="20"
     fit-margin-left="20"
     fit-margin-right="20"
     fit-margin-bottom="20"
     inkscape:window-width="1600"
     inkscape:window-height="820"
     inkscape:window-x="0"
     inkscape:window-y="30"
     inkscape:window-maximized="1" />
  <metadata
     id="metadata3937">
    <rdf:RDF>
      <cc:Work
         rdf:about="">
        <dc:format>image/svg+xml</dc:format>
        <dc:type
           rdf:resource="http://purl.org/dc/dcmitype/StillImage" />
        <dc:title></dc:title>
      </cc:Work>
    </rdf:RDF>
  </metadata>
  <g
     inkscape:label="Layer 1"
     inkscape:groupmode="layer"
     id="layer1"
     transform="translate(327.08357,-38.226113)">
    <path
       sodipodi:type="arc"
       style="fill:#b6ea96;fill-opacity:0.91304351;stroke:none"
       id="path2985"
       sodipodi:cx="367.14285"
       sodipodi:cy="570.93359"
       sodipodi:rx="264.28571"
       sodipodi:ry="487.14285"
       d="m 631.42856,570.93359 c 0,269.04157 -118.32474,487.14281 -264.28571,487.14281 -145.96096,0 -264.2857,-218.10124 -264.2857,-487.14281 0,-269.04156 118.32474,-487.142849 264.2857,-487.142849 143.09705,0 260.20179,209.927849 264.18338,473.588389"
       sodipodi:start="0"
       sodipodi:end="6.2553573"
       sodipodi:open="true"
       transform="matrix(-0.01865381,0.99993542,-0.999826,-0.01278901,757.68286,-37.247811)" />
    <path
       sodipodi:type="arc"
       style="fill:#97d8c0;fill-opacity:1;stroke:none"
       id="path3769"
       sodipodi:cx="491.42856"
       sodipodi:cy="555.2193"
       sodipodi:rx="182.85715"
       sodipodi:ry="137.14285"
       d="m 674.28571,555.2193 c 0,75.74191 -81.86794,137.14285 -182.85715,137.14285 -100.98922,0 -182.85715,-61.40094 -182.85715,-137.14285 0,-75.74191 81.86793,-137.14285 182.85715,-137.14285 99.00769,0 180.03152,59.09992 182.78635,133.32693"
       sodipodi:start="0"
       sodipodi:end="6.2553573"
       sodipodi:open="true"
       transform="matrix(0.8046875,0,0,0.95833333,-109.73212,-225.2298)" />
    <path
       inkscape:connector-curvature="0"
       style="fill:#d6aed2;fill-opacity:1;stroke:none;filter:url(#filter3807)"
       d="m 32.85271,155.43517 c -108.87899,0 -197.125,67.77456 -197.125,151.40625 0,83.63169 88.24601,151.4375 197.125,151.4375 108.87899,0 197.15625,-67.80581 197.15625,-151.4375 l -0.0937,-4.1875 C 226.94516,220.69493 139.59537,155.43517 32.85271,155.43517 z"
       id="path3759" />
    <path
       inkscape:connector-curvature="0"
       style="fill:#d6aed2;fill-opacity:1;stroke:none;filter:url(#filter3807-6)"
       d="m -245.72992,598.08316 c -108.87898,0 -197.12499,67.77456 -197.12499,151.40625 0,83.63169 88.24601,151.4375 197.12499,151.4375 108.87899,0 197.156257,-67.80581 197.156257,-151.4375 l -0.0937,-4.1875 c -2.9701,-81.95899 -90.319897,-147.21875 -197.062557,-147.21875 z"
       id="path3759-0"
       transform="matrix(0.21558214,0,0,0.28067276,-132.74265,525.06117)" />
    <path
       sodipodi:type="arc"
       style="fill:#97d8c0;fill-opacity:1;stroke:none"
       id="path3769-6"
       sodipodi:cx="491.42856"
       sodipodi:cy="555.2193"
       sodipodi:rx="182.85715"
       sodipodi:ry="137.14285"
       d="m 674.28571,555.2193 c 0,75.74191 -81.86794,137.14285 -182.85715,137.14285 -100.98922,0 -182.85715,-61.40094 -182.85715,-137.14285 0,-75.74191 81.86793,-137.14285 182.85715,-137.14285 99.00769,0 180.03152,59.09992 182.78635,133.32693"
       sodipodi:start="0"
       sodipodi:end="6.2553573"
       sodipodi:open="true"
       transform="matrix(0.23242187,0,0,0.30989584,454.35272,557.65238)" />
    <path
       style="fill:none;stroke:#000000;stroke-width:5.19999981;stroke-linecap:butt;stroke-linejoin:miter;stroke-miterlimit:4;stroke-opacity:1;stroke-dasharray:none"
       d="m -143.21972,735.10489 669.29238,-5.0704"
       id="path3901"
       inkscape:connector-type="polyline"
       inkscape:connector-curvature="0"
       inkscape:connection-end-point="d4"
       inkscape:connection-end="#path3769-6"
       inkscape:connection-start-point="d4"
       inkscape:connection-start="#path3759-0" />
    <path
       style="fill:#e0c163;fill-opacity:1;stroke:none"
       d="m 173.32144,226.8979 c -33.7068,36.45636 -43.4966,93.84867 -18.8393,137.94642 8.7415,14.91366 18.8637,31.68554 34.2857,39.64286 18.0433,-13.51758 28.856,-36.21138 38.4822,-56.42857 7.2633,-22.94729 6.184,-48.70886 1.6071,-72.14286 -9.7069,-22.86409 -21.8793,-49.07695 -42.2321,-62.67857 -4.9099,3.0616 -8.8673,9.47245 -13.3036,13.66072 z"
       id="path4560"
       inkscape:connector-curvature="0" />
  </g>
</svg>
