<?xml version="1.0" encoding="UTF-8" standalone="no"?>
<!-- Created with Inkscape (http://www.inkscape.org/) -->

<svg
   xmlns:dc="http://purl.org/dc/elements/1.1/"
   xmlns:cc="http://creativecommons.org/ns#"
   xmlns:rdf="http://www.w3.org/1999/02/22-rdf-syntax-ns#"
   xmlns:svg="http://www.w3.org/2000/svg"
   xmlns="http://www.w3.org/2000/svg"
   xmlns:sodipodi="http://sodipodi.sourceforge.net/DTD/sodipodi-0.dtd"
   xmlns:inkscape="http://www.inkscape.org/namespaces/inkscape"
   width="1014.1671"
   height="753.98645"
   id="svg2"
   version="1.1"
   inkscape:version="0.48.2 r9819"
   sodipodi:docname="New document 1">
  <defs
     id="defs4">
    <filter
       inkscape:collect="always"
       id="filter3807"
       color-interpolation-filters="sRGB">
      <feGaussianBlur
         inkscape:collect="always"
         stdDeviation="5.9662579e-06"
         id="feGaussianBlur3809" />
    </filter>
    <filter
       color-interpolation-filters="sRGB"
       inkscape:collect="always"
       id="filter3807-6">
      <feGaussianBlur
         inkscape:collect="always"
         stdDeviation="5.9662579e-06"
         id="feGaussianBlur3809-7" />
    </filter>
  </defs>
  <sodipodi:namedview
     id="base"
     pagecolor="#ffffff"
     bordercolor="#666666"
     borderopacity="1.0"
     inkscape:pageopacity="0.0"
     inkscape:pageshadow="2"
     inkscape:zoom="0.35"
     inkscape:cx="286.36928"
     inkscape:cy="211.07144"
     inkscape:document-units="px"
     inkscape:current-layer="layer1"
     showgrid="false"
     fit-margin-top="20"
     fit-margin-left="20"
     fit-margin-right="20"
     fit-margin-bottom="20"
     inkscape:window-width="1410"
     inkscape:window-height="738"
     inkscape:window-x="6"
     inkscape:window-y="72"
     inkscape:window-maximized="0" />
  <metadata
     id="metadata7">
    <rdf:RDF>
      <cc:Work
         rdf:about="">
        <dc:format>image/svg+xml</dc:format>
        <dc:type
           rdf:resource="http://purl.org/dc/dcmitype/StillImage" />
        <dc:title></dc:title>
      </cc:Work>
    </rdf:RDF>
  </metadata>
  <g
     inkscape:label="Layer 1"
     inkscape:groupmode="layer"
     id="layer1"
     transform="translate(459.94071,10.552807)">
    <path
       sodipodi:type="arc"
       style="fill:#b6ea96;fill-opacity:0.91304351;stroke:none"
       id="path2985"
       sodipodi:cx="367.14285"
       sodipodi:cy="570.93359"
       sodipodi:rx="264.28571"
       sodipodi:ry="487.14285"
       d="m 631.42856,570.93359 c 0,269.04157 -118.32474,487.14281 -264.28571,487.14281 -145.96096,0 -264.2857,-218.10124 -264.2857,-487.14281 0,-269.04156 118.32474,-487.142849 264.2857,-487.142849 143.09705,0 260.20179,209.927849 264.18338,473.588389"
       sodipodi:start="0"
       sodipodi:end="6.2553573"
       sodipodi:open="true"
       transform="matrix(-0.01865381,0.99993542,-0.999826,-0.01278901,624.82572,-86.026731)" />
    <text
       xml:space="preserve"
       style="font-size:40px;font-style:normal;font-weight:normal;line-height:125%;letter-spacing:0px;word-spacing:0px;fill:#000000;fill-opacity:1;stroke:none;font-family:Sans"
       x="-225.71428"
       y="475.21939"
       id="text3755"
       sodipodi:linespacing="125%"><tspan
         sodipodi:role="line"
         id="tspan3757"
         x="-225.71428"
         y="475.21939">Corpus of Medical Literature</tspan></text>
    <path
       sodipodi:type="arc"
       style="fill:#97d8c0;fill-opacity:1;stroke:none"
       id="path3769"
       sodipodi:cx="491.42856"
       sodipodi:cy="555.2193"
       sodipodi:rx="182.85715"
       sodipodi:ry="137.14285"
       d="m 674.28571,555.2193 c 0,75.74191 -81.86794,137.14285 -182.85715,137.14285 -100.98922,0 -182.85715,-61.40094 -182.85715,-137.14285 0,-75.74191 81.86793,-137.14285 182.85715,-137.14285 99.00769,0 180.03152,59.09992 182.78635,133.32693"
       sodipodi:start="0"
       sodipodi:end="6.2553573"
       sodipodi:open="true"
       transform="matrix(0.8046875,0,0,0.95833333,-296.875,-271.15158)" />
    <path
       style="fill:#d6aed2;fill-opacity:1;stroke:none;filter:url(#filter3807)"
       d="m -65.71875,106.65625 c -108.87899,0 -197.125,67.77456 -197.125,151.40625 0,83.63169 88.24601,151.4375 197.125,151.4375 108.878988,0 197.15625,-67.80581 197.15625,-151.4375 l -0.0937,-4.1875 C 128.3737,171.91601 41.023908,106.65625 -65.71875,106.65625 z"
       id="path3759"
       inkscape:connector-curvature="0" />
    <flowRoot
       xml:space="preserve"
       id="flowRoot3761"
       style="font-size:40px;font-style:normal;font-weight:normal;line-height:125%;letter-spacing:0px;word-spacing:0px;fill:#000000;fill-opacity:1;stroke:none;font-family:Sans"
       transform="translate(-300,-311.42857)"><flowRegion
         id="flowRegion3763"><rect
           id="rect3765"
           width="171.42857"
           height="65.714287"
           x="142.85715"
           y="615.2193" /></flowRegion><flowPara
         id="flowPara3767">TP53</flowPara></flowRoot>    <text
       xml:space="preserve"
       style="font-size:40px;font-style:normal;font-weight:normal;line-height:125%;letter-spacing:0px;word-spacing:0px;fill:#000000;fill-opacity:1;stroke:none;font-family:Sans"
       x="177.14285"
       y="246.6479"
       id="text3771"
       sodipodi:linespacing="125%"><tspan
         sodipodi:role="line"
         id="tspan3773"
         x="177.14285"
         y="246.6479">hsa-mir-3200</tspan></text>
    <path
       style="fill:#e0c163;fill-opacity:1;stroke:none"
       d="m 54.40625,137.21875 c -58.21472,17.51697 -100.125,66.65797 -100.125,124.5625 0,55.70871 38.81077,103.3077 93.59375,122.4375 52.15676,-27.24917 86.40625,-73.21287 86.40625,-125.3125 l -0.0937,-4.1875 c -1.74923,-48.26956 -32.77188,-90.73506 -79.78125,-117.5 z"
       id="path3769-5"
       inkscape:connector-curvature="0" />
    <path
       inkscape:connector-curvature="0"
       style="fill:#d6aed2;fill-opacity:1;stroke:none;filter:url(#filter3807-6)"
       d="m -245.72992,598.08316 c -108.87898,0 -197.12499,67.77456 -197.12499,151.40625 0,83.63169 88.24601,151.4375 197.12499,151.4375 108.87899,0 197.156257,-67.80581 197.156257,-151.4375 l -0.0937,-4.1875 c -2.9701,-81.95899 -90.319897,-147.21875 -197.062557,-147.21875 z"
       id="path3759-0"
       transform="matrix(0.21558214,0,0,0.28067276,-97.599821,470.56797)" />
    <path
       sodipodi:type="arc"
       style="fill:#97d8c0;fill-opacity:1;stroke:none"
       id="path3769-6"
       sodipodi:cx="491.42856"
       sodipodi:cy="555.2193"
       sodipodi:rx="182.85715"
       sodipodi:ry="137.14285"
       d="m 674.28571,555.2193 c 0,75.74191 -81.86794,137.14285 -182.85715,137.14285 -100.98922,0 -182.85715,-61.40094 -182.85715,-137.14285 0,-75.74191 81.86793,-137.14285 182.85715,-137.14285 99.00769,0 180.03152,59.09992 182.78635,133.32693"
       sodipodi:start="0"
       sodipodi:end="6.2553573"
       sodipodi:open="true"
       transform="matrix(0.23242187,0,0,0.30989584,126.6384,508.87347)" />
    <path
       style="fill:none;stroke:#000000;stroke-width:5.19999981;stroke-linecap:butt;stroke-linejoin:miter;stroke-miterlimit:4;stroke-opacity:1;stroke-dasharray:none"
       d="m -108.07144,680.93362 306.42858,0"
       id="path3901"
       inkscape:connector-type="polyline"
       inkscape:connector-curvature="0"
       inkscape:connection-start="#path3759-0"
       inkscape:connection-start-point="d4"
       inkscape:connection-end="#path3769-6"
       inkscape:connection-end-point="d4" />
  </g>
</svg>
