<?xml version="1.0" encoding="UTF-8" standalone="no"?>
<!-- Created with Inkscape (http://www.inkscape.org/) -->

<svg
   xmlns:dc="http://purl.org/dc/elements/1.1/"
   xmlns:cc="http://creativecommons.org/ns#"
   xmlns:rdf="http://www.w3.org/1999/02/22-rdf-syntax-ns#"
   xmlns:svg="http://www.w3.org/2000/svg"
   xmlns="http://www.w3.org/2000/svg"
   xmlns:sodipodi="http://sodipodi.sourceforge.net/DTD/sodipodi-0.dtd"
   xmlns:inkscape="http://www.inkscape.org/namespaces/inkscape"
   width="1014.1671"
   height="753.98645"
   id="svg4591"
   version="1.1"
   inkscape:version="0.48.2 r9819"
   sodipodi:docname="small_distance.png">
  <defs
     id="defs4593">
    <filter
       color-interpolation-filters="sRGB"
       inkscape:collect="always"
       id="filter3807-6">
      <feGaussianBlur
         inkscape:collect="always"
         stdDeviation="5.9662579e-06"
         id="feGaussianBlur3809-7" />
    </filter>
    <filter
       color-interpolation-filters="sRGB"
       inkscape:collect="always"
       id="filter3807">
      <feGaussianBlur
         inkscape:collect="always"
         stdDeviation="5.9662579e-06"
         id="feGaussianBlur3809" />
    </filter>
  </defs>
  <sodipodi:namedview
     id="base"
     pagecolor="#ffffff"
     bordercolor="#666666"
     borderopacity="1.0"
     inkscape:pageopacity="0.0"
     inkscape:pageshadow="2"
     inkscape:zoom="0.35"
     inkscape:cx="989.64538"
     inkscape:cy="18.20525"
     inkscape:document-units="px"
     inkscape:current-layer="layer1"
     showgrid="false"
     fit-margin-left="20"
     fit-margin-top="20"
     fit-margin-right="20"
     fit-margin-bottom="20"
     inkscape:window-width="1279"
     inkscape:window-height="643"
     inkscape:window-x="11"
     inkscape:window-y="96"
     inkscape:window-maximized="0" />
  <metadata
     id="metadata4596">
    <rdf:RDF>
      <cc:Work
         rdf:about="">
        <dc:format>image/svg+xml</dc:format>
        <dc:type
           rdf:resource="http://purl.org/dc/dcmitype/StillImage" />
        <dc:title></dc:title>
      </cc:Work>
    </rdf:RDF>
  </metadata>
  <g
     inkscape:label="Layer 1"
     inkscape:groupmode="layer"
     id="layer1"
     transform="translate(-684.34497,-449.65468)">
    <path
       sodipodi:type="arc"
       style="fill:#b6ea96;fill-opacity:0.91304351;stroke:none"
       id="path2985"
       sodipodi:cx="367.14285"
       sodipodi:cy="570.93359"
       sodipodi:rx="264.28571"
       sodipodi:ry="487.14285"
       d="m 631.42856,570.93359 c 0,269.04157 -118.32474,487.14281 -264.28571,487.14281 -145.96096,0 -264.2857,-218.10124 -264.2857,-487.14281 0,-269.04156 118.32474,-487.142849 264.2857,-487.142849 143.09705,0 260.20179,209.927849 264.18338,473.588389"
       sodipodi:start="0"
       sodipodi:end="6.2553573"
       sodipodi:open="true"
       transform="matrix(-0.01865381,0.99993542,-0.999826,-0.01278901,1769.1114,374.18076)" />
    <path
       sodipodi:type="arc"
       style="fill:#97d8c0;fill-opacity:1;stroke:none"
       id="path3769"
       sodipodi:cx="491.42856"
       sodipodi:cy="555.2193"
       sodipodi:rx="182.85715"
       sodipodi:ry="137.14285"
       d="m 674.28571,555.2193 c 0,75.74191 -81.86794,137.14285 -182.85715,137.14285 -100.98922,0 -182.85715,-61.40094 -182.85715,-137.14285 0,-75.74191 81.86793,-137.14285 182.85715,-137.14285 99.00769,0 180.03152,59.09992 182.78635,133.32693"
       sodipodi:start="0"
       sodipodi:end="6.2553573"
       sodipodi:open="true"
       transform="matrix(0.8046875,0,0,0.95833333,895.9822,186.19878)" />
    <path
       inkscape:connector-curvature="0"
       style="fill:#d6aed2;fill-opacity:1;stroke:none;filter:url(#filter3807)"
       d="m 1155.7099,569.72088 c -108.879,0 -197.12501,67.77457 -197.12501,151.40626 0,83.63169 88.24601,151.4375 197.12501,151.4375 108.879,0 197.1563,-67.80581 197.1563,-151.4375 l -0.094,-4.1875 c -2.9701,-81.95899 -90.3199,-147.21876 -197.0626,-147.21876 z"
       id="path3759" />
    <path
       inkscape:connector-curvature="0"
       style="fill:#d6aed2;fill-opacity:1;stroke:none;filter:url(#filter3807-6)"
       d="m -245.72992,598.08316 c -108.87898,0 -197.12499,67.77456 -197.12499,151.40625 0,83.63169 88.24601,151.4375 197.12499,151.4375 108.87899,0 197.156257,-67.80581 197.156257,-151.4375 l -0.0937,-4.1875 c -2.9701,-81.95899 -90.319897,-147.21875 -197.062557,-147.21875 z"
       id="path3759-0"
       transform="matrix(0.21558214,0,0,0.28067276,1181.5431,930.77546)" />
    <path
       sodipodi:type="arc"
       style="fill:#97d8c0;fill-opacity:1;stroke:none"
       id="path3769-6"
       sodipodi:cx="491.42856"
       sodipodi:cy="555.2193"
       sodipodi:rx="182.85715"
       sodipodi:ry="137.14285"
       d="m 674.28571,555.2193 c 0,75.74191 -81.86794,137.14285 -182.85715,137.14285 -100.98922,0 -182.85715,-61.40094 -182.85715,-137.14285 0,-75.74191 81.86793,-137.14285 182.85715,-137.14285 99.00769,0 180.03152,59.09992 182.78635,133.32693"
       sodipodi:start="0"
       sodipodi:end="6.2553573"
       sodipodi:open="true"
       transform="matrix(0.23242187,0,0,0.30989584,1160.067,966.22382)" />
    <path
       style="fill:none;stroke:#000000;stroke-width:5.19999981;stroke-linecap:butt;stroke-linejoin:miter;stroke-miterlimit:4;stroke-opacity:1;stroke-dasharray:none"
       d="m 1171.0572,1140.3081 60.7365,-1.191"
       id="path3901"
       inkscape:connector-type="polyline"
       inkscape:connector-curvature="0"
       inkscape:connection-end-point="d4"
       inkscape:connection-end="#path3769-6"
       inkscape:connection-start-point="d4"
       inkscape:connection-start="#path3759-0" />
    <path
       style="fill:#e0c163;fill-opacity:1;stroke:none"
       d="m 1253.3526,587.65179 c -64.1136,14.18759 -111.6562,65.91015 -111.6562,127.5625 0,64.33059 51.7522,117.84213 120.0938,129.1875 53.3117,-27.10743 88.5,-73.56194 88.5,-126.34375 l -0.094,-4.1875 c -1.9531,-53.89459 -40.3959,-100.57398 -96.8438,-126.21875 z"
       id="path3769-3"
       inkscape:connector-curvature="0" />
  </g>
</svg>
