<svg font-size="10px" font-family="sans-serif" fill="none" stroke="none" stroke-width="1.5" width="220" height="115"><g transform="translate(0,20)"><g transform="translate(0,20)"><text pointer-events="none" x="3" y="-3" transform="translate(12,10)" fill="rgb(0,0,0)" style="font-style: normal; font-variant: normal; font-weight: normal; font-size: 14px; line-height: normal; font-family: helvetica;">Features</text></g><g transform="translate(0,20)"><g transform="translate(10,10)"><g><rect y="1" width="12" height="10" fill="rgb(31,119,180)"></rect></g><g><text pointer-events="none" x="3" y="-3" transform="translate(20,12)" fill="rgb(0,0,0)" style="font-style: normal; font-variant: normal; font-weight: normal; font-size: 11px; line-height: normal; font-family: helvetica;">Gene Expression</text></g><g transform="translate(0,12)"><rect y="1" width="12" height="10" fill="rgb(44,160,44)"></rect></g><g transform="translate(0,12)"><text pointer-events="none" x="3" y="-3" transform="translate(20,12)" fill="rgb(0,0,0)" style="font-style: normal; font-variant: normal; font-weight: normal; font-size: 11px; line-height: normal; font-family: helvetica;">DNA Methylation</text></g><g transform="translate(0,24)"><rect y="1" width="12" height="10" fill="rgb(255,127,14)"></rect></g><g transform="translate(0,24)"><text pointer-events="none" x="3" y="-3" transform="translate(20,12)" fill="rgb(0,0,0)" style="font-style: normal; font-variant: normal; font-weight: normal; font-size: 11px; line-height: normal; font-family: helvetica;">Somatic Copy Number Alteration</text></g><g transform="translate(0,36)"><rect y="1" width="12" height="10" fill="rgb(148,103,189)"></rect></g><g transform="translate(0,36)"><text pointer-events="none" x="3" y="-3" transform="translate(20,12)" fill="rgb(0,0,0)" style="font-style: normal; font-variant: normal; font-weight: normal; font-size: 11px; line-height: normal; font-family: helvetica;">MicroRNA Expression</text></g><g transform="translate(0,48)"><rect y="1" width="12" height="10" fill="rgb(214,39,40)"></rect></g><g transform="translate(0,48)"><text pointer-events="none" x="3" y="-3" transform="translate(20,12)" fill="rgb(0,0,0)" style="font-style: normal; font-variant: normal; font-weight: normal; font-size: 11px; line-height: normal; font-family: helvetica;">Somatic Mutation</text></g></g></g></g><rect y="20" width="220" height="95" stroke="rgb(0,0,0)" stroke-width="1"></rect></svg>
